 <svg  version="1.0" xmlns="http://www.w3.org/2000/svg"  width="300.000000pt" height="300.000000pt" viewBox="0 0 300.000000 300.000000"  preserveAspectRatio="xMidYMid meet">  <g transform="translate(0.000000,300.000000) scale(0.100000,-0.100000)" fill="#fe0100" stroke="none"> <path d="M1340 2989 c-593 -62 -1110 -494 -1276 -1068 -77 -266 -77 -576 0 -842 126 -434 464 -805 882 -969 895 -350 1872 204 2031 1150 21 124 21 356 0 480 -114 675 -655 1181 -1336 1250 -117 11 -179 11 -301 -1z m-147 -907 c38 -11 74 -25 79 -30 15 -15 -10 -170 -29 -181 -10 -5 -42 6 -93 32 -65 33 -90 41 -152 44 -62 4 -80 1 -118 -19 -60 -31 -90 -77 -90 -139 0 -76 37 -109 230 -209 239 -123 295 -186 295 -335 0 -94 -21 -148 -81 -215 -127 -140 -338 -174 -578 -92 -57 19 -82 33 -84 46 -7 37 20 186 34 186 7 0 39 -18 70 -40 109 -76 262 -102 351 -59 117 57 133 197 30 268 -23 15 -106 61 -185 101 -119 61 -151 82 -197 132 -65 69 -79 110 -73 209 8 158 116 276 288 316 72 17 216 9 303 -15z m546 -577 l-2 -595 -93 0 -92 0 -1 595 -1 595 95 0 95 0 -1 -595z m654 582 c-4 -7 -106 -134 -226 -281 -121 -147 -217 -272 -214 -279 9 -21 228 -291 352 -432 66 -75 121 -145 123 -155 3 -15 -11 -20 -86 -34 -49 -9 -96 -14 -105 -10 -32 12 -487 607 -487 636 0 8 82 113 181 233 100 121 199 246 221 278 l39 57 105 0 c84 0 103 -3 97 -13z"/> </g> </svg> 